<svg width="24" height="24" viewBox="0 0 24 24" fill="none" xmlns="http://www.w3.org/2000/svg">
<g clip-path="url(#clip0_1_242)">
<path d="M11.1238 18.5229H4.1697C3.68755 18.5229 3.27029 18.356 2.91795 18.0223C2.58415 17.6885 2.41724 17.2805 2.41724 16.7983V6.33936H1.22116C1.20261 6.3579 1.16551 6.36718 1.10988 6.36718C0.75754 6.36718 0.451569 6.23737 0.191949 5.97775C-0.0491264 5.71813 -0.169678 5.41215 -0.169678 5.0598C-0.169678 4.70746 -0.0491264 4.40148 0.191949 4.14186C0.451569 3.88224 0.75754 3.75243 1.10988 3.75243H22.8623C23.2332 3.75243 23.5392 3.88224 23.7803 4.14186C24.0399 4.38294 24.1697 4.68892 24.1697 5.0598C24.1697 5.41215 24.0399 5.71813 23.7803 5.97775C23.5392 6.23737 23.2332 6.36718 22.8623 6.36718H21.555V16.7983C21.555 17.2619 21.3881 17.6699 21.0543 18.0223C20.7205 18.356 20.3125 18.5229 19.8303 18.5229H12.8484V20.2476H11.1238V18.5229ZM15.4632 20.2476C15.7042 20.2476 15.9082 20.3403 16.0751 20.5257C16.242 20.6926 16.3254 20.8966 16.3254 21.1377C16.3254 21.3788 16.242 21.5828 16.0751 21.7497C15.9082 21.9166 15.7042 22 15.4632 22H8.50905C8.26797 22 8.064 21.9166 7.89711 21.7497C7.73021 21.5828 7.64676 21.3788 7.64676 21.1377C7.64676 20.8966 7.73021 20.6926 7.89711 20.5257C8.064 20.3403 8.26797 20.2476 8.50905 20.2476H15.4632ZM11.9305 3.75243H11.1238V2.86231C11.1238 2.62123 11.2073 2.41724 11.3742 2.25035C11.5411 2.08345 11.745 2 11.9861 2C12.2272 2 12.4312 2.08345 12.5981 2.25035C12.765 2.41724 12.8484 2.62123 12.8484 2.86231V3.75243H11.9305Z" fill="white"/>
</g>
<defs>
<clipPath id="clip0_1_242">
<rect width="24" height="24" fill="white"/>
</clipPath>
</defs>
</svg>
