<svg width="24" height="24" viewBox="0 0 24 24" fill="none" xmlns="http://www.w3.org/2000/svg">
<path d="M4.8653 4.14612C4.8653 3.55251 5.07078 3.05023 5.48174 2.63927C5.90792 2.21309 6.41019 2 6.98858 2H16.9886C17.3691 2 17.7268 2.09893 18.0616 2.2968C18.3965 2.49467 18.6553 2.76104 18.8379 3.09589C19.0358 3.41553 19.1347 3.7656 19.1347 4.14612V19.8539C19.1347 20.4475 18.9216 20.9498 18.4955 21.3607C18.0845 21.7869 17.5822 22 16.9886 22H6.98858C6.39497 22 5.8927 21.7869 5.48174 21.3607C5.07078 20.9498 4.8653 20.4475 4.8653 19.8539V4.14612ZM6.28083 5.92694V18.0731C6.28083 18.1644 6.31128 18.2481 6.37216 18.3242C6.44826 18.3851 6.53958 18.4155 6.64613 18.4155H17.3539C17.4452 18.4155 17.5213 18.3851 17.5822 18.3242C17.6583 18.2481 17.6964 18.1644 17.6964 18.0731V5.92694C17.6964 5.83562 17.6583 5.75951 17.5822 5.69863C17.5213 5.62253 17.4452 5.58448 17.3539 5.58448H6.64613C6.53958 5.58448 6.44826 5.62253 6.37216 5.69863C6.31128 5.75951 6.28083 5.83562 6.28083 5.92694ZM11.9886 15.5616C11.3493 15.5616 10.7557 15.4018 10.2078 15.0822C9.65981 14.7626 9.22604 14.3288 8.90641 13.7808C8.58677 13.2329 8.42696 12.6393 8.42696 12C8.42696 11.3607 8.58677 10.7671 8.90641 10.2192C9.22604 9.67123 9.65981 9.23744 10.2078 8.91781C10.7557 8.59817 11.3493 8.43836 11.9886 8.43836C12.6279 8.43836 13.2215 8.59817 13.7694 8.91781C14.3174 9.23744 14.7511 9.67123 15.0708 10.2192C15.3904 10.7671 15.5503 11.3607 15.5503 12C15.5503 12.6393 15.3904 13.2329 15.0708 13.7808C14.7511 14.3288 14.3174 14.7626 13.7694 15.0822C13.2215 15.4018 12.6279 15.5616 11.9886 15.5616ZM12.8105 11.6119L11.8744 10.9726C11.707 10.8661 11.5624 10.8432 11.4407 10.9041C11.3341 10.965 11.2808 11.0944 11.2808 11.2922V12.7078C11.2808 12.9209 11.3341 13.0578 11.4407 13.1187C11.5624 13.1644 11.707 13.1339 11.8744 13.0274L12.8105 12.3881C12.9779 12.2816 13.0616 12.1522 13.0616 12C13.0616 11.8478 12.9779 11.7184 12.8105 11.6119Z" fill="white"/>
</svg>
