<svg width="24" height="24" viewBox="0 0 24 24" fill="none" xmlns="http://www.w3.org/2000/svg">
<path d="M14.9966 5.02397C16.1633 5.42352 17.194 6.0468 18.089 6.89384C19 7.72489 19.7111 8.69977 20.2225 9.81849C20.734 10.9852 20.9897 12.2078 20.9897 13.4863C20.9897 15.1164 20.5823 16.6347 19.7673 18.0411C18.9682 19.3995 17.8892 20.4783 16.5307 21.2774C15.1403 22.0925 13.6301 22.5 12 22.5C10.3699 22.5 8.85971 22.0925 7.4693 21.2774C6.11085 20.4783 5.03209 19.3995 4.23301 18.0411C3.41794 16.6347 3.01028 15.1164 3.01028 13.4863C3.01028 12.3037 3.23415 11.169 3.68164 10.0822C4.11314 9.0274 4.72834 8.08448 5.52743 7.25343C6.32651 6.42237 7.24547 5.77512 8.28429 5.31164C8.2683 5.21575 8.26039 5.07192 8.26039 4.88014C8.26039 4.27283 8.41202 3.71347 8.71568 3.20206C9.01933 2.67466 9.42699 2.25913 9.9384 1.95548C10.4498 1.65183 11.0091 1.5 11.6164 1.5C12.2237 1.5 12.783 1.65183 13.2944 1.95548C13.8218 2.25913 14.2374 2.67466 14.5411 3.20206C14.8447 3.71347 14.9966 4.27283 14.9966 4.88014C14.9966 4.92808 14.9966 4.97603 14.9966 5.02397ZM12.7431 4.88014C12.7431 4.5605 12.6312 4.2968 12.4075 4.08904C12.1997 3.8653 11.9361 3.75343 11.6164 3.75343C11.3128 3.75343 11.0491 3.8653 10.8253 4.08904C10.6176 4.31279 10.5137 4.57648 10.5137 4.88014C10.5137 5.18379 10.6176 5.44749 10.8253 5.67123C11.0491 5.89498 11.3128 6.00685 11.6164 6.00685C11.9361 6.00685 12.1997 5.89498 12.4075 5.67123C12.6312 5.44749 12.7431 5.18379 12.7431 4.88014ZM12 9.00343C11.7922 9.00343 11.6164 9.07534 11.4725 9.21918C11.3287 9.36301 11.257 9.53881 11.257 9.74658L10.5856 13.75C10.5377 13.9098 10.5137 14.0776 10.5137 14.2534C10.5137 14.653 10.6576 15.0046 10.9453 15.3082C11.249 15.5959 11.6005 15.7397 12 15.7397C12.4155 15.7397 12.767 15.5959 13.0547 15.3082C13.3584 15.0205 13.5102 14.669 13.5102 14.2534C13.5102 14.1416 13.4783 13.9737 13.4144 13.75L12.7431 9.74658C12.7431 9.53881 12.6713 9.36301 12.5275 9.21918C12.3836 9.07534 12.2078 9.00343 12 9.00343Z" fill="white"/>
</svg>
