<svg width="808" height="808" viewBox="0 0 808 808" fill="none" xmlns="http://www.w3.org/2000/svg">
<path d="M723.79 84.42C647.55 8.48 537.94 0 404 0C269.89 0 160.12 8.58 83.92 84.72C7.72 160.86 0 270.43 0 404.39C0 538.35 7.74 648 84 724.14C160.26 800.28 269.9 808 404 808C538.1 808 647.85 800.29 724 724.14C800.15 647.99 808 538.36 808 404.39C808 270.25 800.16 160.54 723.79 84.42Z" fill="white"/>
<mask id="mask0_19_69" style="mask-type:alpha" maskUnits="userSpaceOnUse" x="0" y="0" width="808" height="808">
<path d="M723.79 84.42C647.55 8.48 537.94 0 404 0C269.89 0 160.12 8.58 83.92 84.72C7.72 160.86 0 270.43 0 404.39C0 538.35 7.74 648 84 724.14C160.26 800.28 269.9 808 404 808C538.1 808 647.85 800.29 724 724.14C800.15 647.99 808 538.36 808 404.39C808 270.25 800.16 160.54 723.79 84.42Z" fill="url(#paint0_radial_19_69)"/>
<path d="M723.79 84.42C647.55 8.48 537.94 0 404 0C269.89 0 160.12 8.58 83.92 84.72C7.72 160.86 0 270.43 0 404.39C0 538.35 7.74 648 84 724.14C160.26 800.28 269.9 808 404 808C538.1 808 647.85 800.29 724 724.14C800.15 647.99 808 538.36 808 404.39C808 270.25 800.16 160.54 723.79 84.42Z" fill="white" fill-opacity="0.66"/>
</mask>
<g mask="url(#mask0_19_69)">
<path d="M362.514 -1.98817C390.973 -2.04838 394.821 -1.91149 395.742 -0.80165C396.315 -0.110815 398.409 1.56102 400.395 2.91417C413.635 11.9338 423.888 26.9219 426.969 41.7589C427.42 43.9344 427.511 43.9689 431.167 43.3439C436.866 42.3702 449.885 42.8188 458.242 44.2765C471.665 46.6191 479.911 49.2421 492.178 55.0714C496.661 57.2022 500.617 58.9458 500.969 58.9464C501.32 58.9464 502.641 59.4502 503.906 60.0665C505.171 60.6829 509.626 61.7586 513.806 62.4581C521.833 63.8017 527.955 63.4163 537.289 60.9786C548.36 58.0876 554.401 50.9037 555.487 39.338C556.13 32.5002 557.277 32.869 560.025 40.797C565.314 56.0576 562.27 70.721 551.62 81.2862C548.853 84.0321 545.082 86.9909 543.242 87.8624C541.402 88.7336 539.893 89.6463 539.887 89.8907C539.882 90.1347 544.082 94.5914 549.22 99.7941C554.357 104.997 561.218 112.462 564.467 116.384C567.717 120.305 570.566 123.692 570.8 123.91C571.957 124.993 583.693 141.723 587.193 147.281C600.938 169.108 612.757 194.933 623.607 226.853C633.329 255.451 644.855 267.118 656.105 259.747C659.215 257.71 660.544 258.767 659.881 262.752C658.156 273.11 648.928 285.968 639.396 291.295C631.556 295.678 619.282 297.074 610.651 294.565C608.264 293.871 606.092 293.523 605.823 293.791C604.591 295.024 621.992 310.318 628.763 313.952C635.876 317.77 645.311 320.386 651.971 320.386C656.57 320.386 666.546 318.253 668.773 316.794C670.52 315.65 672.979 315.222 672.979 316.063C672.978 317.114 666.142 325.596 662.053 329.621C653.555 337.984 641.879 344.548 627.819 348.865C623.245 350.271 618.61 351.792 617.521 352.247C616.431 352.703 611.261 353.231 606.032 353.421C598.173 353.707 595.566 353.492 590.99 352.184C587.948 351.313 585.334 350.726 585.179 350.878C585.026 351.031 584.373 355.195 583.729 360.132C582.406 370.267 580.466 380.292 577.466 392.48C576.34 397.054 575.112 402.238 574.737 403.999C574.135 406.825 568.389 424.045 564.882 433.532C562.393 440.265 552.645 461.02 548.63 468.139C538.556 485.997 517.596 507.173 502.029 515.219C491.103 520.867 486.157 522.348 476.193 522.96C466.941 523.529 466.17 522.442 473.686 519.421C488.841 513.329 500.781 499.823 513.717 474.139C519.545 462.567 524.134 450.315 531.1 427.734C532.748 422.388 534.525 413.799 534.075 413.349C533.811 413.083 531.71 413.756 529.408 414.843C527.106 415.929 524.489 417.048 523.593 417.329C522.522 417.665 520.351 420.977 517.255 426.998C511.669 437.862 511.907 437.44 507.423 444.414C497.789 459.396 487.585 470.188 472.068 481.805C467.558 485.181 463.648 488.479 463.379 489.133C462.473 491.339 461.387 503.712 460.946 516.861C460.443 531.893 460.451 531.914 466.767 534.214C475.16 537.271 479.725 537.047 495.805 532.789C501.772 531.209 502.164 531.196 504.916 532.493C508.548 534.206 514.292 540.145 518.667 546.712C521.443 550.879 523.48 552.749 529.976 557.096C542.126 565.227 549.586 570.837 560.044 579.705C567.958 586.417 571.509 588.548 577.288 590.053C582.973 591.534 594.284 595.976 603.935 600.52C608.009 602.438 611.485 604.008 611.659 604.008C612.258 604.007 611.972 601.606 611.21 600.234C609.08 596.401 603.26 581.492 603.26 579.866C603.26 579.328 604.134 577.944 605.202 576.791C606.91 574.949 607.749 574.697 612.135 574.707C618.479 574.722 623.308 576.429 631.397 581.515C639.003 586.297 645.685 587.639 650.943 585.442C655.087 583.711 655.755 581.427 654.264 574.102C653.575 570.724 652.565 566.891 652.019 565.584C649.494 559.548 648.589 555.049 649.522 553.17C650.534 551.136 658.251 546.174 660.404 546.174C662.725 546.174 666.521 550.052 669.951 555.924C675.071 564.69 678.493 571.762 678.509 573.609C678.518 574.629 679.893 576.419 681.986 578.134C684.59 580.267 686.38 582.893 689.208 588.726C693.303 597.176 693.594 597.841 695.612 603.437C696.705 606.462 696.797 607.625 696.07 609.218C694.674 612.282 694.941 613.401 697.884 616.839C700.869 620.326 701.108 620.785 707.534 635.421C709.841 640.674 708.406 646.084 703.206 651.74C700.723 654.441 698.624 654.493 695.162 651.939C692.18 649.739 690.408 649.402 690.408 651.035C690.408 652.032 693.396 658.84 699.269 671.224L701.651 676.25L704.547 675.709C706.139 675.411 707.846 674.834 708.341 674.426C708.835 674.017 711.602 673.462 714.489 673.192C721.143 672.571 721.918 673.207 726.555 683.107C728.461 687.176 730.02 690.627 730.021 690.776C730.021 690.923 731.052 693.297 732.312 696.051C733.571 698.805 735.494 703.019 736.585 705.415C737.676 707.812 739.717 712.267 741.121 715.317C746.646 727.322 748.242 730.889 748.243 731.227C748.243 731.418 748.914 733.087 749.734 734.935C750.554 736.781 751.667 739.451 752.207 740.867C753.166 743.382 753.302 743.443 758.044 743.46C764.89 743.485 766.059 744.615 773.19 758.099C775.265 762.02 778.115 767.368 779.523 769.983C783.127 776.67 788.059 785.898 791.893 793.127C793.692 796.519 795.429 799.652 795.753 800.088C796.799 801.494 797.289 804.622 796.825 806.94L796.373 809.198H36L36.0127 807.02C36.0236 805.198 44.819 791.794 51.248 783.8C53.1368 781.451 55.8878 777.458 65.291 763.412C75.7376 747.808 79.7985 743.155 85.3721 740.406C89.3563 738.442 93.7069 733.515 102.236 721.308C107.211 714.187 116.391 699.647 121.272 691.154C122.901 688.322 126.893 682.264 130.146 677.692L136.061 669.379L134.754 665.702C132.74 660.03 133.013 659.106 138.202 654.044C140.816 651.494 142.955 649.145 142.955 648.823C142.955 648.502 141.398 646.22 139.495 643.752C133.111 635.472 131.04 630.149 129.427 617.872C127.786 605.392 130.002 590.315 135.48 576.676C140.909 563.163 151.985 543.669 160.513 532.619C162.927 529.491 162.762 528.745 159.655 528.745C157.848 528.745 149.363 526.05 144.936 524.07C144.064 523.68 141.925 522.745 140.183 521.993C134.548 519.562 123.729 511.845 118.595 506.597C111.468 499.31 102.88 486.165 104.31 484.733C104.523 484.519 106.16 485.762 107.945 487.494C114.691 494.041 121.847 495.887 140.183 495.812C151.504 495.765 154.724 495.472 160.385 493.975C168.006 491.958 179.56 487.23 185.665 483.63C187.922 482.299 190.054 481.211 190.403 481.211C190.753 481.211 191.628 480.559 192.349 479.762C193.593 478.387 193.453 478.215 189.611 476.416C184.55 474.046 179.975 468.927 177.716 463.106C174.8 455.593 175.546 442.695 179.394 434.072C179.783 433.201 181.017 430.419 182.136 427.89C183.255 425.36 184.519 422.864 184.942 422.344C185.367 421.822 186.642 420.238 187.776 418.821C188.911 417.405 190.155 416.247 190.54 416.247C190.931 416.247 191.022 419.574 190.745 423.791C190.052 434.341 192.576 441.399 198.568 445.672C203.833 449.427 215.291 447.098 222.443 440.818C225.648 438.004 225.678 437.532 223.003 431.695C219.397 423.827 218.22 420.944 218.22 419.979C218.22 419.407 217.929 418.602 217.574 418.188C217.219 417.773 215.95 414.226 214.753 410.305C212.537 403.044 212.241 402.02 209.938 393.668C209.217 391.054 208.328 387.846 207.964 386.538C206.703 382.017 204.815 373.047 203.961 367.524C203.49 364.474 202.966 361.088 202.798 359.998C202.63 358.909 202.466 357.955 202.434 357.877C202.401 357.8 200.325 358.973 197.819 360.484C195.313 361.994 192.373 363.444 191.283 363.704C190.194 363.965 188.947 364.425 188.511 364.73C184.916 367.235 168.453 367.983 160.824 365.988C154.73 364.395 153.866 363.512 156.424 361.487C159.807 358.81 165.251 353.337 166.097 351.761C166.849 350.359 166.67 350.294 163.446 350.8C155.292 352.079 149.804 352.237 145.135 351.327C139.484 350.227 127.868 346.165 124.337 344.056C123.03 343.275 120.8 342.044 119.383 341.322C116.389 339.796 105.719 330.127 105.719 328.94C105.719 328.471 106.959 328.292 108.69 328.512C115.638 329.394 125.928 326.095 135.711 319.849C147.953 312.033 164.246 291.871 168.65 279.089C169.828 275.67 169.998 275.916 164.494 273.101C158.95 270.264 148.916 262.701 144.33 257.902C137.494 250.75 131.233 241.096 127.053 231.259C123.053 221.848 119.143 206.08 120.479 204.748C120.883 204.346 121.504 204.987 126.317 210.772C130.607 215.926 143.02 223.445 150.585 225.469C152.272 225.92 156.753 226.666 160.546 227.127C168.068 228.041 173.944 227.182 179.474 224.361C185.251 221.414 185.876 219.962 188.083 204.322C188.452 201.708 189.129 197.965 189.589 196.004C195.038 172.732 194.54 174.442 200.076 159.957C201.774 155.515 205.128 148.746 207.607 144.757C211.318 138.787 211.983 137.137 210.945 136.48C210.372 136.115 209.298 135.813 208.562 135.806C207.825 135.799 207.002 135.437 206.732 135.001C206.463 134.565 205.601 134.209 204.816 134.209C203.119 134.209 194.108 129.722 191.294 127.475C183.687 121.4 176.422 111.229 174.715 104.261C173.562 99.5536 174.111 93.651 175.835 92.2198C176.734 91.4744 177.164 91.8179 178.083 94.0177C180.926 100.821 194.291 105.655 210.298 105.669C225.538 105.682 238.466 101.587 245.949 94.3741C247.91 92.4838 251.534 89.4244 254 87.5753C256.597 85.6289 259.064 82.9806 259.861 81.2853C263.577 73.3787 274.634 61.2288 282.945 55.92C284.773 54.7523 286.587 52.9048 286.976 51.8155C287.365 50.726 288.433 47.5117 289.349 44.671C290.849 40.0198 292.005 37.6901 296.945 29.3566C299.436 25.1554 304.54 19.2194 310.846 13.1905C316.314 7.96254 319.331 5.57396 327.553 -0.0311419L330.325 -1.92079L362.514 -1.98817ZM215.92 562.069C215.658 562.098 213.307 563.325 210.693 564.796C208.079 566.268 205.406 567.735 204.752 568.058C197.551 571.602 186.047 580.554 176.99 589.663C163.981 602.744 155.29 616.31 151.561 629.35C149.799 635.51 149.829 634.905 151.272 634.905C152.42 634.905 158.712 630.731 162.762 627.282C173.337 618.275 178.898 612.899 185.442 605.347C198.995 589.709 200.64 588.472 211.299 585.903C213.375 585.404 215.792 584.994 216.672 584.994C218.61 584.994 219.529 583.006 218.284 581.507C217.787 580.907 217.157 576.276 216.886 571.217C216.615 566.159 216.18 562.043 215.92 562.069ZM316.461 475.477C316.461 473.506 313.85 475.542 310.891 479.824C309.007 482.548 304.812 488.073 301.567 492.103L295.669 499.43L298.954 503.78C308.337 516.206 316.643 522.539 325.021 523.65C329.831 524.288 329.994 525.362 325.527 526.967C321.263 528.498 309.727 527.782 302.992 525.567C296.637 523.478 288.063 519.402 286.007 517.494C285.162 516.711 284.203 516.07 283.875 516.069C283.547 516.069 281.586 518.298 279.519 521.021C277.451 523.744 274.097 527.933 272.065 530.329C265.643 537.908 251.73 556.985 248.787 562.246C245.651 567.854 243.952 572.169 244.616 572.834C245.475 573.692 250.728 571.358 257.475 567.123C261.252 564.751 264.437 562.812 264.554 562.812C264.68 562.805 269.323 560.151 274.881 556.907C288.653 548.87 292.119 548.088 308.142 549.401C327.767 551.01 330.666 549.712 332.272 538.597C333.195 532.213 333.268 498.673 332.373 492.37C331.708 487.689 331.577 487.537 321.675 480.031C318.808 477.859 316.462 475.81 316.461 475.477ZM375.662 14.9073C367.903 9.14638 359.016 6.82172 350.054 8.20812C346.288 8.79043 341.993 9.92317 338.248 11.3214C332.625 13.4208 319.915 20.4216 314.887 24.1896C305.94 30.8925 296.106 41.7975 294.035 47.3116C293.585 48.5119 293.79 48.6627 295.272 48.2198C296.25 47.9283 297.763 47.2542 298.635 46.7218C300.96 45.3005 314.701 40.1367 318.838 39.129C325.182 37.5842 333.302 36.1959 342.073 35.1573C357.037 33.3851 376.544 36.0866 388.054 41.5245C390.811 42.8269 393.301 43.8937 393.585 43.8937C395.476 43.8937 392.053 34.9222 387.365 27.5948C383.579 21.6752 380.975 18.8527 375.662 14.9073Z" fill="black" fill-opacity="0.87"/>
</g>
<defs>
<radialGradient id="paint0_radial_19_69" cx="0" cy="0" r="1" gradientUnits="userSpaceOnUse" gradientTransform="translate(404 404) rotate(90) scale(337.5)">
<stop stop-color="#FFE100"/>
<stop offset="1" stop-color="white"/>
</radialGradient>
</defs>
</svg>
